<?xml version="1.0" standalone="no"?><!DOCTYPE svg PUBLIC "-//W3C//DTD SVG 1.1//EN" "http://www.w3.org/Graphics/SVG/1.1/DTD/svg11.dtd"><svg t="1571818469523" class="icon" viewBox="0 0 1024 1024" version="1.1" xmlns="http://www.w3.org/2000/svg" p-id="3956" xmlns:xlink="http://www.w3.org/1999/xlink" width="200" height="200"><defs><style type="text/css"></style></defs><path d="M367.616 610.304C232.504889 633.656889 142.222222 684.316444 142.222222 753.777778c0 94.321778 172.572444 156.444444 384 156.444444S910.222222 848.099556 910.222222 753.777778c0-69.091556-89.258667-119.523556-223.118222-143.075556l-9.870222 56.035556C785.664 685.795556 853.333333 724.053333 853.333333 753.777778c0 47.075556-145.777778 99.555556-327.111111 99.555555S199.111111 800.853333 199.111111 753.777778c0-29.980444 68.636444-68.465778 178.204445-87.409778l-9.699556-56.064z m182.556444 94.72l-23.950222 37.432889-23.950222-37.432889a2823.907556 2823.907556 0 0 1-29.297778-47.36 2853.745778 2853.745778 0 0 1-64.170666-111.616 1983.658667 1983.658667 0 0 1-29.752889-56.718222C336.810667 405.248 312.888889 340.849778 312.888889 298.666667a213.333333 213.333333 0 0 1 426.666667 0c0 42.211556-23.893333 106.581333-66.161778 190.663111-9.187556 18.289778-19.143111 37.262222-29.752889 56.718222a2853.745778 2853.745778 0 0 1-93.468445 158.976z m-19.399111-76.8a2797.880889 2797.880889 0 0 0 62.919111-109.340444c10.296889-18.972444 19.968-37.376 28.871112-55.096889C660.764444 387.811556 682.666667 328.817778 682.666667 298.666667a156.444444 156.444444 0 0 0-312.888889 0c0 30.122667 21.902222 89.144889 60.103111 165.12 8.903111 17.720889 18.574222 36.124444 28.871111 55.096889A2797.880889 2797.880889 0 0 0 526.222222 635.733333l4.551111-7.480889zM526.222222 369.777778a71.111111 71.111111 0 1 0 0-142.222222 71.111111 71.111111 0 0 0 0 142.222222z" fill="#1296db" p-id="3957"></path></svg>