<?xml version="1.0" standalone="no"?><!DOCTYPE svg PUBLIC "-//W3C//DTD SVG 1.1//EN" "http://www.w3.org/Graphics/SVG/1.1/DTD/svg11.dtd"><svg t="1572231521313" class="icon" viewBox="0 0 1024 1024" version="1.1" xmlns="http://www.w3.org/2000/svg" p-id="6069" xmlns:xlink="http://www.w3.org/1999/xlink" width="200" height="200"><defs><style type="text/css"></style></defs><path d="M913.24416 194.2528H110.77632c-47.39072 0-85.93408 35.6352-85.93408 79.44192v476.5696c0 43.84768 38.54336 79.48288 85.93408 79.48288h802.46784c47.37024 0 85.9136-35.6352 85.9136-79.48288v-476.5696c0-43.80672-38.64576-79.44192-85.9136-79.44192zM88.82176 750.2848V283.8528l246.45632 233.84064h-0.28672L88.7808 751.39072v-1.1264h0.04096v0.02048z m34.73408-496.2304h776.88832L512.02048 606.16704 123.55584 254.0544zM375.6032 555.08992l136.35584 126.03392 137.03168-126.64832 240.00512 215.83872H135.00416L375.6032 555.08992z m314.79808-37.376h-1.6384L935.3216 284.71296v466.24768L690.40128 517.71392z" fill="#050505" p-id="6070"></path></svg>