<?xml version="1.0" standalone="no"?><!DOCTYPE svg PUBLIC "-//W3C//DTD SVG 1.1//EN" "http://www.w3.org/Graphics/SVG/1.1/DTD/svg11.dtd"><svg t="1571818491389" class="icon" viewBox="0 0 1024 1024" version="1.1" xmlns="http://www.w3.org/2000/svg" p-id="4805" xmlns:xlink="http://www.w3.org/1999/xlink" width="200" height="200"><defs><style type="text/css"></style></defs><path d="M878.2 903.8H145.8c-21.7-0.1-42.5-8.5-57.8-23.2-15.3-14.7-23.8-34.6-23.6-55.2V198.6c-0.1-20.7 8.4-40.5 23.6-55.2 15.3-14.7 36-23 57.8-23.2h732.3c45.2 0.3 81.7 35.4 81.4 78.4v104.5H688.3c-120.2 1.7-216.6 94.7-216.6 209 0 114.2 96.5 207.3 216.6 208.9h271.2v104.5c0.3 42.9-36.1 78-81.3 78.3zM525.5 512c-2.8-83.7 66.2-153.8 154.3-156.7h279.7v313.4H679.8c-88.1-2.9-157.1-73-154.3-156.7z m239 0c-1.4-41.6-37.8-74.4-81.6-73.6-43.8 0.9-78.7 35.1-78.2 76.7s36.1 75.2 79.9 75.2c44.9-0.6 80.6-35.7 79.9-78.3z m0 0" fill="#10AEFF" p-id="4806"></path></svg>