<?xml version="1.0" standalone="no"?><!DOCTYPE svg PUBLIC "-//W3C//DTD SVG 1.1//EN" "http://www.w3.org/Graphics/SVG/1.1/DTD/svg11.dtd"><svg t="1570416032539" class="icon" viewBox="0 0 1024 1024" version="1.1" xmlns="http://www.w3.org/2000/svg" p-id="3144" xmlns:xlink="http://www.w3.org/1999/xlink" width="200" height="200"><defs><style type="text/css"></style></defs><path d="M270.418845 950.857143C239.362639 950.857143 203.011829 931.806049 203.011829 877.970982L203.011829 575.362756 141.502744 575.362756C130.309163 575.362756 117.668643 567.741676 107.67962 555.08166 97.207935 541.805572 91.428571 524.599479 91.428571 506.775172L91.428571 498.789806 487.445052 80.270009C492.018807 75.599646 498.638632 73.142857 506.94673 73.142857 516.332423 73.142857 523.435963 75.599646 528.128283 80.396437 529.575223 81.869654 886.351214 452.696892 927.034447 494.976587L932.571429 500.752666 932.571429 508.742318C932.571429 527.056269 929.56318 541.190572 923.304302 551.76237 915.120018 565.77453 901.273891 573.517755 884.424759 573.517755L824.718314 573.517755 823.755087 880.553128 823.275573 882.763489C822.915674 884.487419 819.062766 899.851723 808.832411 915.583528 793.785922 938.691057 772.722933 950.857143 747.80284 950.857143L601.43428 950.857143 601.43428 931.191047C601.557043 854.002024 601.675611 651.811421 601.43428 642.963553 601.314662 638.414261 596.859474 626.615676 591.806204 626.615676L433.038455 626.615676C429.546494 626.615676 422.444005 633.375327 422.444005 642.348551L422.444005 950.857143 275.112218 950.857143C274.029374 950.736071 272.463867 950.857143 270.418845 950.857143M143.547766 536.029493 241.650041 536.029493 241.650041 877.970982C241.650041 886.329207 241.650041 911.528166 270.537413 911.528166L272.3453 911.528166 273.545662 911.402809 383.928558 911.402809 383.928558 642.101052C383.928558 612.851015 406.918 587.040271 433.038455 587.040271L591.806204 587.040271C607.094027 587.040271 620.575009 595.029923 629.723569 609.531727 636.821861 620.840669 639.592976 633.500685 639.834308 641.490337 640.07249 651.200706 639.953924 847.242373 639.834308 911.281737L747.564657 911.281737C772.480552 911.281737 782.710907 883.009916 785.116877 875.145622L786.080104 533.941277 884.182378 533.941277C888.514803 533.941277 889.240896 532.711276 890.080309 531.359131 891.163152 529.391985 892.969989 525.215552 893.57227 516.363397 848.552417 469.655484 556.655757 166.185828 507.667577 115.30148L130.550495 514.027681C132.715133 527.182696 140.658084 534.184492 143.547766 536.029493" p-id="3145" fill="#d81e06"></path></svg>